<svg width="93" height="30" viewBox="0 0 93 30" fill="none" xmlns="http://www.w3.org/2000/svg">
<path d="M16.1301 27C22.8293 27 28.2601 21.6274 28.2601 15C28.2601 8.37258 22.8293 3 16.1301 3C9.43081 3 4 8.37258 4 15C4 21.6274 9.43081 27 16.1301 27Z" fill="black"/>
<path d="M21.1148 10.1663C20.5321 10.1663 20.0569 10.6363 20.0569 11.2128V16.9069C20.0569 17.3681 19.6804 17.7406 19.2142 17.7406C18.748 17.7406 18.3715 17.3681 18.3715 16.9069V13.0842C18.3715 11.47 17.0446 10.1574 15.4129 10.1574C13.7812 10.1574 12.4544 11.47 12.4544 13.0842V16.9069C12.4544 17.3681 12.0778 17.7406 11.6116 17.7406C11.1454 17.7406 10.7689 17.3681 10.7689 16.9069C10.7689 16.3304 10.2937 15.8603 9.71098 15.8603C9.12824 15.8603 8.65308 16.3304 8.65308 16.9069C8.65308 18.521 9.97994 19.8337 11.6116 19.8337C13.2433 19.8337 14.5702 18.521 14.5702 16.9069V13.0842C14.5702 12.623 14.9467 12.2505 15.4129 12.2505C15.8791 12.2505 16.2556 12.623 16.2556 13.0842V16.9069C16.2556 18.521 17.5825 19.8337 19.2142 19.8337C20.8459 19.8337 22.1727 18.521 22.1727 16.9069V11.2128C22.1727 10.6363 21.6976 10.1663 21.1148 10.1663Z" fill="#00E5B5"/>
<path d="M40.5157 9.66913C40.1212 9.66913 39.7985 10.0328 39.7985 10.4319V16.7645C39.7985 18.3964 38.5971 19.7356 37.0282 19.7356C35.4413 19.7356 34.222 18.3875 34.222 16.7645C34.222 16.3565 33.8993 16.0195 33.5048 16.0195C33.1103 16.0195 32.7876 16.3476 32.7876 16.7645C32.7876 19.2301 34.6344 21.066 37.0192 21.066C39.3771 21.066 41.2419 19.0705 41.2419 16.6048V10.423C41.2508 10.0328 40.9281 9.66913 40.5157 9.66913Z" fill="black"/>
<path d="M52.3948 11.5499C52.9246 11.5499 53.3541 11.125 53.3541 10.6009C53.3541 10.0768 52.9246 9.65192 52.3948 9.65192C51.865 9.65192 51.4355 10.0768 51.4355 10.6009C51.4355 11.125 51.865 11.5499 52.3948 11.5499Z" fill="black"/>
<path d="M46.3611 12.5876C43.9943 12.5876 42.0757 14.4856 42.0757 16.8271C42.0757 19.1685 43.9943 21.0665 46.3611 21.0665C48.7279 21.0665 50.6465 19.1685 50.6465 16.8271C50.6465 14.4856 48.7279 12.5876 46.3611 12.5876ZM46.3611 19.6918C44.7563 19.6918 43.4563 18.4058 43.4563 16.8182C43.4563 15.2306 44.7563 13.9446 46.3611 13.9446C47.9659 13.9446 49.2659 15.2306 49.2659 16.8182C49.2659 18.4058 47.9659 19.6918 46.3611 19.6918Z" fill="black"/>
<path d="M58.1863 13.9624C58.3387 13.9358 58.5001 13.918 58.6614 13.918C58.6614 13.918 58.6614 13.918 58.6525 13.918C58.4911 13.918 58.3387 13.9269 58.1863 13.9624Z" fill="black"/>
<path d="M68.129 12.5876C68.1021 12.5876 68.0842 12.5876 68.0573 12.5876C67.9138 12.5876 67.7704 12.5965 67.6359 12.6231C66.8559 12.7206 66.1477 13.0665 65.5918 13.5632C65.5918 13.5188 65.5918 13.4834 65.5918 13.4834V13.306C65.5918 12.9157 65.2691 12.5965 64.8746 12.5965C64.4801 12.5965 64.1574 12.9157 64.1574 13.306C64.1574 14.4767 64.1574 16.6674 64.1574 16.6674V18.3348V18.8226V18.8315C64.1574 19.2838 63.7898 19.6475 63.3326 19.6563C62.8843 19.6563 62.5167 19.2927 62.5167 18.8492V16.3215C62.5167 14.2639 60.8312 12.5965 58.7513 12.5965C58.7244 12.5965 58.7065 12.5965 58.6796 12.5965C58.5361 12.5965 58.3927 12.6053 58.2582 12.6319C57.4782 12.7295 56.77 13.0754 56.2141 13.5721C56.2141 13.5277 56.2141 13.4922 56.2141 13.4922V13.3149C56.2141 12.9246 55.8914 12.6053 55.4969 12.6053C55.1024 12.6053 54.7797 12.9246 54.7797 13.3149C54.7797 14.4856 54.7797 16.6763 54.7797 16.6763V18.8492C54.7797 19.3016 54.4121 19.6741 53.9459 19.6741C53.4887 19.6741 53.1121 19.3104 53.1121 18.8492V12.6053H51.6687V19C51.6687 20.1619 52.6369 21.0931 53.8114 21.0931C54.941 21.0931 56.1603 20.2151 56.232 19.1153C56.232 19.1064 56.232 19.0976 56.232 19.0976V16.5698C56.232 16.4634 56.241 16.357 56.25 16.2506C56.2769 15.133 57.0927 14.2018 58.1775 13.9889C58.3299 13.9534 58.4913 13.9446 58.6437 13.9446C58.6437 13.9446 58.6437 13.9446 58.6527 13.9446C59.6747 13.9446 60.5443 14.5743 60.894 15.4701C60.9926 15.7361 61.0554 16.02 61.0554 16.3215C61.0554 16.357 61.0554 16.5698 61.0554 16.5698V18.8315V18.8404C61.0554 18.8404 61.0554 18.8404 61.0554 18.8315C61.0554 18.8936 61.0554 18.9468 61.0643 19C61.0643 19 61.0643 19 61.0643 18.9911V19C61.0643 19.0089 61.0643 19.0266 61.0733 19.0355C61.1809 20.1707 62.1402 21.0665 63.3146 21.0754C64.0498 21.031 64.8118 20.6319 65.2511 20.0554C65.4842 19.7007 65.6187 19.2749 65.6187 18.8226V18.7871V16.5344C65.6187 16.4279 65.6277 16.3215 65.6366 16.2151C65.6635 15.0976 66.4794 14.1663 67.5642 13.9534C67.7166 13.918 67.878 13.9091 68.0304 13.9091C68.0304 13.9091 68.0304 13.9091 68.0393 13.9091C69.0614 13.9091 69.931 14.5388 70.2807 15.4346C70.3793 15.7007 70.442 15.9845 70.442 16.286C70.442 16.3215 70.442 16.5344 70.442 16.5344V21.0577H71.9034V16.3126C71.9034 14.255 70.2089 12.5876 68.129 12.5876Z" fill="black"/>
<path d="M80.2229 12.6231C79.5774 12.6231 79.0126 13.1996 79.0126 13.8559V16.8626C79.0126 17.918 78.2505 18.734 77.2823 18.734C76.3051 18.734 75.5341 17.9091 75.5341 16.8626V13.8559C75.5341 13.1907 74.9782 12.6231 74.3237 12.6231C73.6872 12.6231 73.1313 13.1996 73.1313 13.8559V16.8626C73.1313 19.1952 74.9513 21.0311 77.2823 21.0311C79.5595 21.0311 81.4153 19.1597 81.4153 16.8626V13.8559C81.4153 13.1996 80.8595 12.6231 80.2229 12.6231Z" fill="black"/>
<path d="M86.0504 15.9845C85.2525 15.816 84.6159 15.683 84.6159 15.204C84.6159 14.8759 84.867 14.4945 85.5663 14.4945C86.158 14.4945 86.5435 14.6808 86.8842 14.8493C87.18 14.9912 87.44 15.1242 87.8076 15.1242C88.3724 15.1242 88.722 14.6719 88.722 14.2462C88.722 13.2794 87.4759 12.6231 85.6111 12.6231C83.8001 12.6231 82.3836 13.7584 82.3836 15.204C82.3836 17.1198 84.087 17.4834 85.3332 17.7406C86.0773 17.9003 86.66 18.0244 86.66 18.4768C86.66 18.7695 86.4538 19.1153 85.4497 19.1153C84.8221 19.1153 84.4546 18.9202 84.1408 18.7517C83.8808 18.6098 83.6656 18.4945 83.3249 18.4945C82.7691 18.4945 82.3567 18.9025 82.3567 19.4524C82.3567 20.3748 83.6477 21.0222 85.4945 21.0222C87.5566 21.0222 88.991 19.9224 88.991 18.3437C89 16.6054 87.2966 16.2506 86.0504 15.9845Z" fill="black"/>
</svg>
