<svg xmlns="http://www.w3.org/2000/svg" xmlns:xlink="http://www.w3.org/1999/xlink" width="184" height="137" viewBox="0 0 184 137">
  <defs>
    <filter id="Rectángulo_2469" x="-2.713" y="11.89" width="212.053" height="265.05" filterUnits="userSpaceOnUse">
      <feOffset dx="-2" input="SourceAlpha"/>
      <feGaussianBlur stdDeviation="2" result="blur"/>
      <feFlood flood-opacity="0.161"/>
      <feComposite operator="in" in2="blur"/>
      <feComposite in="SourceGraphic"/>
    </filter>
    <filter id="Rectángulo_2469-2" x="31.539" y="5.406" width="181.301" height="286.018" filterUnits="userSpaceOnUse">
      <feOffset dx="-6" dy="-4" input="SourceAlpha"/>
      <feGaussianBlur stdDeviation="6" result="blur-2"/>
      <feFlood flood-opacity="0.2"/>
      <feComposite operator="in" in2="blur-2"/>
      <feComposite in="SourceGraphic"/>
    </filter>
    <clipPath id="clip-ticketes">
      <rect width="184" height="137"/>
    </clipPath>
  </defs>
  <g id="ticketes" clip-path="url(#clip-ticketes)">
    <g id="Grupo_12539" data-name="Grupo 12539" transform="translate(-0.292 49.527) rotate(-19)">
      <g id="Grupo_12538" data-name="Grupo 12538" transform="translate(97.175 0) rotate(80)">
        <g transform="matrix(0.48, -0.87, 0.87, 0.48, -60.05, 71.43)" filter="url(#Rectángulo_2469)">
          <rect id="Rectángulo_2469-3" data-name="Rectángulo 2469" width="98.674" height="234.63" rx="7" transform="translate(5.29 65.73) rotate(-29)" fill="#fff"/>
        </g>
        <g id="Grupo_12534" data-name="Grupo 12534" transform="translate(11.804 28.694)">
          <rect id="Rectángulo_546" data-name="Rectángulo 546" width="48.365" height="49.72" transform="translate(0 0)" fill="#eee"/>
          <g id="Grupo_2497" data-name="Grupo 2497" transform="translate(8.957 9.653)">
            <path id="Unión_1" data-name="Unión 1" d="M0,13.556V0H13.3V13.556Zm10.167-3.128v-7.3H3.128v7.3ZM5.214,8.212V5.344H8.342V8.212Z" transform="translate(0 0)"/>
            <path id="Unión_3" data-name="Unión 3" d="M0,13.556V0H13.3V13.556Zm10.167-3.128v-7.3H3.128v7.3ZM5.214,8.212V5.344H8.342V8.212Z" transform="translate(0 16.522)"/>
            <path id="Unión_2" data-name="Unión 2" d="M0,13.556V0H13.3V13.556Zm10.167-3.128v-7.3H3.128v7.3ZM5.214,8.212V5.344H8.342V8.212Z" transform="translate(16.782 0)"/>
            <path id="XMLID_4_" d="M10.321,9.677A2.976,2.976,0,0,1,7.346,6.7V2.975a.7.7,0,0,0-1.4,0V6.7A2.971,2.971,0,1,1,0,6.7a1.136,1.136,0,0,1,2.273,0,.7.7,0,0,0,1.4,0V2.975a2.971,2.971,0,1,1,5.943,0V6.7a.7.7,0,0,0,1.4,0V1.133a1.136,1.136,0,0,1,2.273,0V6.7a2.984,2.984,0,0,1-2.975,2.975" transform="translate(16.782 18.485)"/>
          </g>
        </g>
        <rect id="Rectángulo_2470" data-name="Rectángulo 2470" width="160.498" height="88.526" transform="translate(74.491 5.398)" fill="#e8fff8"/>
        <rect id="Rectángulo_2471" data-name="Rectángulo 2471" width="157.619" height="2.879" transform="translate(65.135 8.997)" fill="#f72b2b"/>
        <g id="XMLID_58_" transform="translate(11.908 12.163)">
          <g id="XMLID_69_" transform="translate(0 0)">
            <g id="Grupo_679" data-name="Grupo 679">
              <g id="XMLID_72_" transform="translate(14.193 1.783)">
                <path id="XMLID_83_" d="M.037,4.607C.037,4.57,0,4.533,0,4.5A.175.175,0,0,1,.186,4.31c.074,0,.149.037.149.074A1.409,1.409,0,0,0,1.6,5.127c.669,0,1.189-.52,1.189-1.449V.186A.2.2,0,0,1,2.972,0a.175.175,0,0,1,.186.186V3.678A1.957,1.957,0,0,1,2.675,5.09a1.512,1.512,0,0,1-1.115.446A1.864,1.864,0,0,1,.037,4.607Z" transform="translate(0 0.111)" fill="#1b1b1b"/>
                <path id="XMLID_80_" d="M0,2.081H0A2.045,2.045,0,0,1,2.043,0,2.006,2.006,0,0,1,4.05,2.043h0A2.045,2.045,0,0,1,2.006,4.124,1.983,1.983,0,0,1,0,2.081Zm3.641,0h0A1.643,1.643,0,0,0,2.006.372a1.636,1.636,0,0,0-1.6,1.709h0A1.643,1.643,0,0,0,2.043,3.79,1.659,1.659,0,0,0,3.641,2.081Z" transform="translate(4.013 1.486)" fill="#1b1b1b"/>
                <g id="XMLID_77_" transform="translate(8.843 0)">
                  <path id="XMLID_79_" d="M.223.594A.214.214,0,0,0,.446.372V.223A.214.214,0,0,0,.223,0,.214.214,0,0,0,0,.223V.372A.24.24,0,0,0,.223.594Z" transform="translate(0 0)" fill="#1b1b1b"/>
                  <path id="XMLID_78_" d="M7.431,0A1.563,1.563,0,0,0,6.019.817V.26a.186.186,0,0,0-.372,0V3.27a.483.483,0,1,1-.966,0V1.635A1.522,1.522,0,0,0,3.121,0,1.564,1.564,0,0,0,1.709.817V.26A.176.176,0,0,0,1.523.074.176.176,0,0,0,1.338.26V3.27a.492.492,0,0,1-.483.483A.492.492,0,0,1,.372,3.27V.26A.176.176,0,0,0,.186.074.176.176,0,0,0,0,.26V3.27a.841.841,0,0,0,.855.854.841.841,0,0,0,.854-.854V1.746A1.358,1.358,0,0,1,3.084.334,1.211,1.211,0,0,1,4.347,1.672v1.56a.854.854,0,1,0,1.709,0V1.709A1.358,1.358,0,0,1,7.431.3,1.211,1.211,0,0,1,8.694,1.635V3.864a.186.186,0,0,0,.372,0V1.56A1.565,1.565,0,0,0,7.431,0Z" transform="translate(0.112 1.486)" fill="#1b1b1b"/>
                </g>
                <path id="XMLID_75_" d="M0,2.675V0H1.189V2.3c0,.557.26.855.706.855s.743-.3.743-.855V0H3.827V4.124H2.638V3.53A1.512,1.512,0,0,1,1.412,4.2C.52,4.236,0,3.641,0,2.675Z" transform="translate(18.726 1.375)" fill="#1b1b1b"/>
                <path id="XMLID_73_" d="M0,3.6l.483-.78a2.263,2.263,0,0,0,1.3.483c.334,0,.483-.111.483-.3h0c0-.26-.409-.334-.855-.483C.817,2.341.186,2.081.186,1.3h0C.186.446.854,0,1.709,0a2.964,2.964,0,0,1,1.56.483L2.824,1.3A2.612,2.612,0,0,0,1.709.929c-.3,0-.446.111-.446.3h0c0,.223.409.334.854.483.595.186,1.263.483,1.263,1.226h0c0,.929-.706,1.338-1.6,1.338A3.413,3.413,0,0,1,0,3.6Z" transform="translate(22.85 1.375)" fill="#1b1b1b"/>
              </g>
              <path id="XMLID_71_" d="M9.177,8.583A2.648,2.648,0,0,1,6.539,5.945V2.638a.632.632,0,1,0-1.263,0V5.945A2.638,2.638,0,1,1,0,5.945a1,1,0,0,1,2.006,0,.632.632,0,1,0,1.263,0V2.638a2.638,2.638,0,1,1,5.276,0V5.945a.632.632,0,0,0,1.263,0V1.04a1,1,0,1,1,2.006,0v4.9A2.648,2.648,0,0,1,9.177,8.583" fill="#6abba4"/>
            </g>
          </g>
          <g id="XMLID_59_" transform="translate(40.646 5.945)">
            <path id="XMLID_67_" d="M0,0H.409V.409H0Z" transform="translate(0 1.04)" fill="#1b1b1b"/>
            <path id="XMLID_65_" d="M0,.743H0A.722.722,0,0,1,.743,0,.7.7,0,0,1,1.3.223l-.223.26A.338.338,0,0,0,.78.334.367.367,0,0,0,.446.706h0a.343.343,0,0,0,.334.372A.554.554,0,0,0,1.115.929l.223.223a.726.726,0,0,1-.557.26A.661.661,0,0,1,0,.743Z" transform="translate(0.632 0)" fill="#1b1b1b"/>
            <path id="XMLID_62_" d="M0,.743H0A.745.745,0,0,1,.743,0a.715.715,0,0,1,.743.706h0a.714.714,0,0,1-.743.706A.664.664,0,0,1,0,.743Zm1.115,0h0A.351.351,0,0,0,.743.372.372.372,0,0,0,.372.743h0a.351.351,0,0,0,.372.372A.333.333,0,0,0,1.115.743Z" transform="translate(2.043 0)" fill="#1b1b1b"/>
            <path id="XMLID_60_" d="M0,.037H.409V.223A.5.5,0,0,1,.817,0a.427.427,0,0,1,.409.223A.53.53,0,0,1,1.672,0a.46.46,0,0,1,.483.52v.892H1.746V.632c0-.186-.074-.3-.223-.3S1.3.446,1.3.632v.78H.892V.632c0-.186-.074-.3-.223-.3S.446.446.446.632v.78H.037V.037Z" transform="translate(3.827 0)" fill="#1b1b1b"/>
          </g>
        </g>
      </g>
      <g id="Grupo_12537" data-name="Grupo 12537" transform="translate(151.25 28.683) rotate(97)">
        <g transform="matrix(0.21, -0.98, 0.98, 0.21, -58.42, 143.04)" filter="url(#Rectángulo_2469-2)">
          <rect id="Rectángulo_2469-4" data-name="Rectángulo 2469" width="98.674" height="234.63" rx="7" transform="translate(55.54 47.92) rotate(-12)" fill="#fff"/>
        </g>
        <g id="Grupo_12534-2" data-name="Grupo 12534" transform="translate(11.804 28.694)">
          <rect id="Rectángulo_546-2" data-name="Rectángulo 546" width="48.365" height="49.72" transform="translate(0 0)" fill="#eee"/>
          <g id="Grupo_2497-2" data-name="Grupo 2497" transform="translate(8.957 9.653)">
            <path id="Unión_1-2" data-name="Unión 1" d="M0,13.556V0H13.3V13.556Zm10.167-3.128v-7.3H3.128v7.3ZM5.214,8.212V5.344H8.342V8.212Z"/>
            <path id="Unión_3-2" data-name="Unión 3" d="M0,13.556V0H13.3V13.556Zm10.167-3.128v-7.3H3.128v7.3ZM5.214,8.212V5.344H8.342V8.212Z" transform="translate(0 16.522)"/>
            <path id="Unión_2-2" data-name="Unión 2" d="M0,13.556V0H13.3V13.556Zm10.167-3.128v-7.3H3.128v7.3ZM5.214,8.212V5.344H8.342V8.212Z" transform="translate(16.782 0)"/>
            <path id="XMLID_4_2" data-name="XMLID_4_" d="M10.321,9.677A2.976,2.976,0,0,1,7.346,6.7V2.975a.7.7,0,0,0-1.4,0V6.7A2.971,2.971,0,1,1,0,6.7a1.136,1.136,0,0,1,2.273,0,.7.7,0,0,0,1.4,0V2.975a2.971,2.971,0,1,1,5.943,0V6.7a.7.7,0,0,0,1.4,0V1.133a1.136,1.136,0,0,1,2.273,0V6.7a2.984,2.984,0,0,1-2.975,2.975" transform="translate(16.782 18.485)"/>
          </g>
        </g>
        <rect id="Rectángulo_2470-2" data-name="Rectángulo 2470" width="160.498" height="88.526" transform="translate(74.491 5.398)" fill="#e8fff8"/>
        <rect id="Rectángulo_2471-2" data-name="Rectángulo 2471" width="157.619" height="2.879" transform="translate(65.135 8.997)" fill="#f72b2b"/>
        <g id="XMLID_58_2" data-name="XMLID_58_" transform="translate(11.908 12.163)">
          <g id="XMLID_69_2" data-name="XMLID_69_" transform="translate(0 0)">
            <g id="Grupo_679-2" data-name="Grupo 679">
              <g id="XMLID_72_2" data-name="XMLID_72_" transform="translate(14.193 1.783)">
                <path id="XMLID_83_2" data-name="XMLID_83_" d="M.037,4.607C.037,4.57,0,4.533,0,4.5A.175.175,0,0,1,.186,4.31c.074,0,.149.037.149.074A1.409,1.409,0,0,0,1.6,5.127c.669,0,1.189-.52,1.189-1.449V.186A.2.2,0,0,1,2.972,0a.175.175,0,0,1,.186.186V3.678A1.957,1.957,0,0,1,2.675,5.09a1.512,1.512,0,0,1-1.115.446A1.864,1.864,0,0,1,.037,4.607Z" transform="translate(0 0.111)" fill="#1b1b1b"/>
                <path id="XMLID_80_2" data-name="XMLID_80_" d="M0,2.081H0A2.045,2.045,0,0,1,2.043,0,2.006,2.006,0,0,1,4.05,2.043h0A2.045,2.045,0,0,1,2.006,4.124,1.983,1.983,0,0,1,0,2.081Zm3.641,0h0A1.643,1.643,0,0,0,2.006.372a1.636,1.636,0,0,0-1.6,1.709h0A1.643,1.643,0,0,0,2.043,3.79,1.659,1.659,0,0,0,3.641,2.081Z" transform="translate(4.013 1.486)" fill="#1b1b1b"/>
                <g id="XMLID_77_2" data-name="XMLID_77_" transform="translate(8.843 0)">
                  <path id="XMLID_79_2" data-name="XMLID_79_" d="M.223.594A.214.214,0,0,0,.446.372V.223A.214.214,0,0,0,.223,0,.214.214,0,0,0,0,.223V.372A.24.24,0,0,0,.223.594Z" transform="translate(0 0)" fill="#1b1b1b"/>
                  <path id="XMLID_78_2" data-name="XMLID_78_" d="M7.431,0A1.563,1.563,0,0,0,6.019.817V.26a.186.186,0,0,0-.372,0V3.27a.483.483,0,1,1-.966,0V1.635A1.522,1.522,0,0,0,3.121,0,1.564,1.564,0,0,0,1.709.817V.26A.176.176,0,0,0,1.523.074.176.176,0,0,0,1.338.26V3.27a.492.492,0,0,1-.483.483A.492.492,0,0,1,.372,3.27V.26A.176.176,0,0,0,.186.074.176.176,0,0,0,0,.26V3.27a.841.841,0,0,0,.855.854.841.841,0,0,0,.854-.854V1.746A1.358,1.358,0,0,1,3.084.334,1.211,1.211,0,0,1,4.347,1.672v1.56a.854.854,0,1,0,1.709,0V1.709A1.358,1.358,0,0,1,7.431.3,1.211,1.211,0,0,1,8.694,1.635V3.864a.186.186,0,0,0,.372,0V1.56A1.565,1.565,0,0,0,7.431,0Z" transform="translate(0.112 1.486)" fill="#1b1b1b"/>
                </g>
                <path id="XMLID_75_2" data-name="XMLID_75_" d="M0,2.675V0H1.189V2.3c0,.557.26.855.706.855s.743-.3.743-.855V0H3.827V4.124H2.638V3.53A1.512,1.512,0,0,1,1.412,4.2C.52,4.236,0,3.641,0,2.675Z" transform="translate(18.726 1.375)" fill="#1b1b1b"/>
                <path id="XMLID_73_2" data-name="XMLID_73_" d="M0,3.6l.483-.78a2.263,2.263,0,0,0,1.3.483c.334,0,.483-.111.483-.3h0c0-.26-.409-.334-.855-.483C.817,2.341.186,2.081.186,1.3h0C.186.446.854,0,1.709,0a2.964,2.964,0,0,1,1.56.483L2.824,1.3A2.612,2.612,0,0,0,1.709.929c-.3,0-.446.111-.446.3h0c0,.223.409.334.854.483.595.186,1.263.483,1.263,1.226h0c0,.929-.706,1.338-1.6,1.338A3.413,3.413,0,0,1,0,3.6Z" transform="translate(22.85 1.375)" fill="#1b1b1b"/>
              </g>
              <path id="XMLID_71_2" data-name="XMLID_71_" d="M9.177,8.583A2.648,2.648,0,0,1,6.539,5.945V2.638a.632.632,0,1,0-1.263,0V5.945A2.638,2.638,0,1,1,0,5.945a1,1,0,0,1,2.006,0,.632.632,0,1,0,1.263,0V2.638a2.638,2.638,0,1,1,5.276,0V5.945a.632.632,0,0,0,1.263,0V1.04a1,1,0,1,1,2.006,0v4.9A2.648,2.648,0,0,1,9.177,8.583" fill="#6abba4"/>
            </g>
          </g>
          <g id="XMLID_59_2" data-name="XMLID_59_" transform="translate(40.646 5.945)">
            <path id="XMLID_67_2" data-name="XMLID_67_" d="M0,0H.409V.409H0Z" transform="translate(0 1.04)" fill="#1b1b1b"/>
            <path id="XMLID_65_2" data-name="XMLID_65_" d="M0,.743H0A.722.722,0,0,1,.743,0,.7.7,0,0,1,1.3.223l-.223.26A.338.338,0,0,0,.78.334.367.367,0,0,0,.446.706h0a.343.343,0,0,0,.334.372A.554.554,0,0,0,1.115.929l.223.223a.726.726,0,0,1-.557.26A.661.661,0,0,1,0,.743Z" transform="translate(0.632 0)" fill="#1b1b1b"/>
            <path id="XMLID_62_2" data-name="XMLID_62_" d="M0,.743H0A.745.745,0,0,1,.743,0a.715.715,0,0,1,.743.706h0a.714.714,0,0,1-.743.706A.664.664,0,0,1,0,.743Zm1.115,0h0A.351.351,0,0,0,.743.372.372.372,0,0,0,.372.743h0a.351.351,0,0,0,.372.372A.333.333,0,0,0,1.115.743Z" transform="translate(2.043 0)" fill="#1b1b1b"/>
            <path id="XMLID_60_2" data-name="XMLID_60_" d="M0,.037H.409V.223A.5.5,0,0,1,.817,0a.427.427,0,0,1,.409.223A.53.53,0,0,1,1.672,0a.46.46,0,0,1,.483.52v.892H1.746V.632c0-.186-.074-.3-.223-.3S1.3.446,1.3.632v.78H.892V.632c0-.186-.074-.3-.223-.3S.446.446.446.632v.78H.037V.037Z" transform="translate(3.827 0)" fill="#1b1b1b"/>
          </g>
        </g>
      </g>
    </g>
  </g>
</svg>
